Coordinates
version=1
nRows=10
nColumns=40
inDegrees=yes

Units are S.I. units (second, meters, Newtons, ...)
Angles are in degrees.

endheader
time	pelvis_tilt	pelvis_list	pelvis_rotation	pelvis_tx	pelvis_ty	pelvis_tz	hip_flexion_r	hip_adduction_r	hip_rotation_r	knee_angle_r	knee_angle_r_beta	ankle_angle_r	subtalar_angle_r	mtp_angle_r	hip_flexion_l	hip_adduction_l	hip_rotation_l	knee_angle_l	knee_angle_l_beta	ankle_angle_l	subtalar_angle_l	mtp_angle_l	lumbar_extension	lumbar_bending	lumbar_rotation	arm_flex_r	arm_add_r	arm_rot_r	elbow_flex_r	pro_sup_r	wrist_flex_r	wrist_dev_r	arm_flex_l	arm_add_l	arm_rot_l	elbow_flex_l	pro_sup_l	wrist_flex_l	wrist_dev_l
     13.42500000	     -0.94520987	     -2.61153522	     -3.91875735	      1.08125019	      0.92194931	      0.44454691	     27.88458600	     -3.70640593	    -12.18109514	     15.36517285	     15.36517285	      3.91499646	      4.22086385	      8.93381811	     -6.63283094	     -3.00238695	    -13.60517314	     10.65530065	     10.65530065	     18.82655267	     -3.55879461	     -5.98019232	    -10.00391446	      5.66524234	      1.99672029	    -11.60598126	    -13.92818073	    -14.70794657	     18.91843509	     48.11781026	      0.00000000	      0.00000000	     33.15522922	    -19.84842592	      4.88125839	     59.47002754	     46.43377519	      0.00000000	      0.00000000
     13.43621429	     -0.95304301	     -2.53618074	     -3.85839063	      1.08302535	      0.91962761	      0.44655772	     27.68349028	     -3.48163420	    -12.88659078	     14.70868883	     14.70868883	      4.02019555	      4.78891644	      9.30268140	     -7.36344371	     -3.04089297	    -13.67229297	     10.76461963	     10.76461963	     19.87369103	     -3.10144963	     -4.93200207	     -9.84196290	      5.58805926	      1.73666103	    -13.59488140	    -14.03568082	    -15.29801085	     20.36436308	     48.05017725	      0.00000000	      0.00000000	     32.51949569	    -20.46573879	      4.09574263	     63.14803870	     46.58085241	      0.00000000	      0.00000000
     13.44742857	     -0.95982374	     -2.63887650	     -3.72113389	      1.08484877	      0.91735191	      0.44877243	     27.45241183	     -3.09906040	    -13.40746934	     14.45578693	     14.45578693	      3.78137384	      4.71983319	      9.03997427	     -8.05622897	     -3.30222072	    -13.54130784	     10.92802584	     10.92802584	     20.60182985	     -3.09036532	     -4.55389149	     -9.66661925	      5.68450690	      2.10579483	    -15.31891756	    -13.82314605	    -15.36483858	     20.21190146	     48.02835126	      0.00000000	      0.00000000	     32.85050455	    -20.35236708	      3.66811602	     65.06665114	     46.65844398	      0.00000000	      0.00000000
     13.45864286	     -1.00454329	     -2.66113427	     -3.58207425	      1.08667819	      0.91492747	      0.45110592	     27.49106579	     -2.86840254	    -13.55701492	     14.97262997	     14.97262997	      3.33851835	      4.11742956	      7.81884905	     -8.56374409	     -3.53159922	    -13.38398418	     11.38197853	     11.38197853	     21.52072891	     -3.06446369	     -3.75084426	     -9.45406803	      5.69416939	      2.29531798	    -17.01895400	    -13.65562049	    -15.50721836	     20.71639690	     47.97707355	      0.00000000	      0.00000000	     32.66541432	    -20.36675560	      3.07996310	     67.76798696	     46.76016006	      0.00000000	      0.00000000
     13.46985714	     -1.07157679	     -2.72376613	     -3.38069083	      1.08856693	      0.91258032	      0.45353305	     27.56584969	     -2.62780929	    -13.40838044	     15.79886897	     15.79886897	      2.49574070	      2.93177527	      5.62705364	     -8.90135712	     -3.87138139	    -13.15377743	     12.12333223	     12.12333223	     22.55153875	     -3.09351103	     -2.70275657	     -9.21398987	      5.75774058	      2.19730957	    -18.54758797	    -13.48167538	    -15.61122299	     21.52833948	     47.90359401	      0.00000000	      0.00000000	     32.12970919	    -20.60863094	      2.28558912	     70.64528460	     46.88168715	      0.00000000	      0.00000000
     13.48107143	     -0.91966678	     -2.93346498	     -3.13914105	      1.09070864	      0.91070776	      0.45610823	     27.20462735	     -2.23559232	    -13.15365577	     16.45843868	     16.45843868	      0.63105013	      1.35145312	      0.69260675	     -9.44178565	     -4.40729501	    -12.96751140	     13.01110918	     13.01110918	     23.78666384	     -2.94684005	     -1.00877545	     -9.21802736	      5.98135150	      1.48057799	    -19.63295836	    -13.56455381	    -15.35700190	     22.90156645	     47.73778940	      0.00000000	      0.00000000	     30.81203940	    -21.23625210	      0.77674962	     74.02761919	     47.08864553	      0.00000000	      0.00000000
     13.49228571	     -0.93376449	     -3.04313102	     -2.89407681	      1.09251201	      0.90871841	      0.45864284	     27.47875132	     -2.11010104	    -12.85109980	     18.19182215	     18.19182215	      0.30889141	      0.06019609	     -0.39410786	     -9.53317853	     -4.87517329	    -12.51180332	     14.25949236	     14.25949236	     24.21028033	     -3.59012157	     -1.10495631	     -9.01349147	      6.10170547	      1.84475446	    -20.66107193	    -13.27190817	    -15.19476617	     22.53266257	     47.71443048	      0.00000000	      0.00000000	     30.81129848	    -20.84642080	      0.50547931	     75.36090758	     47.14168494	      0.00000000	      0.00000000
     13.50350000	     -0.84900630	     -3.21583395	     -2.63794495	      1.09440740	      0.90711344	      0.46132656	     27.47022544	     -1.82273498	    -12.21239698	     19.59642361	     19.59642361	     -1.01443269	     -2.07778690	     -4.25196294	     -9.57136308	     -5.44996097	    -11.96903904	     15.82041469	     15.82041469	     24.51197893	     -4.38924542	     -1.13683176	     -8.99281363	      6.28748221	      1.35352919	    -21.15910830	    -13.31192783	    -14.62549238	     22.91564109	     47.57259235	      0.00000000	      0.00000000	     29.37140386	    -21.10270964	     -0.96233420	     78.64772412	     47.34928167	      0.00000000	      0.00000000
     13.51471429	     -0.72661271	     -3.37956381	     -2.34341124	      1.09608427	      0.90590190	      0.46393630	     27.56051003	     -1.65770903	    -11.77132056	     21.42190031	     21.42190031	     -0.90960091	     -3.44307788	     -4.79035150	     -9.31085209	     -6.07409637	    -11.31721571	     17.95396342	     17.95396342	     24.55712748	     -5.48150555	     -1.60752066	     -9.00468753	      6.45611953	      1.73633553	    -21.72120360	    -12.93683689	    -14.47923038	     22.60404495	     47.55655357	      0.00000000	      0.00000000	     29.17364715	    -20.63859766	     -1.16280005	     79.84683920	     47.39206305	      0.00000000	      0.00000000
     13.52592857	     -0.57706436	     -3.58983193	     -2.04640239	      1.09757266	      0.90506411	      0.46660992	     27.59453594	     -1.42350433	    -11.30843272	     23.19362164	     23.19362164	     -0.62633632	     -4.80002243	     -5.27428116	     -8.78465330	     -6.79173403	    -10.61254833	     20.58582605	     20.58582605	     24.27242983	     -6.84034460	     -2.30959106	     -9.08594276	      6.69273923	      2.03093289	    -21.97941665	    -12.65539324	    -14.38469939	     22.42594223	     47.54399648	      0.00000000	      0.00000000	     28.64554503	    -20.24107233	     -1.47530603	     81.26061006	     47.44326083	      0.00000000	      0.00000000
